<?xml version="1.0" encoding="UTF-8"?><svg id="AdobeIllustrator" xmlns="http://www.w3.org/2000/svg" viewBox="0 0 256 256"><path id="bgDark" d="M63.42,31.18H192.58c19.58,0,35.42,15.83,35.42,35.42v124.17c0,19.58-15.83,35.42-35.42,35.42H63.42c-19.58,0-35.42-15.83-35.42-35.42V66.6c0-19.58,15.83-35.42,35.42-35.42Z" fill="#300"/><g id="letters"><path id="letterI" d="M169.67,95.35c-2.75,.08-5.42-1-7.42-2.92-1.92-2.08-2.92-4.83-2.83-7.67-.08-2.83,1-5.5,3-7.42s4.67-2.92,7.42-2.92c3.25,0,5.75,1,7.58,2.92,1.83,2,2.83,4.67,2.75,7.42,.08,2.83-.92,5.58-2.92,7.67-1.92,2-4.75,3.08-7.58,2.92h0Zm-9.33,72.33V103.52c0-.83,.33-1.17,1.08-1.17h16.5c.75,0,1.08,.42,1.08,1.17v64.17c0,.92-.33,1.33-1.08,1.33h-16.33c-.83,0-1.25-.5-1.25-1.33Z" fill="#ff9a00"/><path id="letterA" d="M124.67,147.85h-31l-6.33,19.58c-.17,.75-.83,1.25-1.58,1.17h-15.67c-.92,0-1.17-.5-.92-1.5l26.83-77.25c.25-.83,.5-1.75,.83-2.75,.33-1.75,.5-3.58,.5-5.42-.08-.42,.25-.83,.67-.92h21.58c.67,0,1,.25,1.08,.67l30.42,85.83c.25,.92,0,1.33-.83,1.33h-17.42c-.58,.08-1.17-.33-1.33-.92l-6.83-19.83h0Zm-26.17-16.92h21.17c-.5-1.75-1.17-3.83-1.92-6-.75-2.25-1.5-4.67-2.25-7.17-.83-2.58-1.58-5.08-2.42-7.67s-1.58-5-2.25-7.42c-.67-2.33-1.25-4.5-1.83-6.5h-.17c-.75,3.58-1.67,7.17-2.83,10.75-1.25,4-2.5,8.17-3.83,12.33-1.17,4.25-2.42,8.17-3.67,11.67Z" fill="#ff9a00"/></g></svg>