<?xml version="1.0" encoding="UTF-8"?><svg id="CSS" xmlns="http://www.w3.org/2000/svg" viewBox="0 0 256 256"><polygon id="bgDark" points="128.44 230.83 128.44 30.83 44.8 30.83 60.01 204.94 128.44 230.83" fill="#264de3" stroke="#264de3" stroke-miterlimit="10"/><polygon id="bgLight" points="128.44 230.83 128.44 30.83 212.09 30.83 196.88 204.94 128.44 230.83" fill="#2965f0"/><polygon id="outline" points="128.44 230.83 196.88 204.94 212.09 30.83 44.8 30.83 60.01 204.94 128.44 230.83" fill="none" stroke="#264de3" stroke-miterlimit="10" stroke-width="5"/><polygon id="number3" points="187.58 58 68.97 58 70.34 77.87 165.24 77.3 163.91 108.02 72.5 109.01 73.7 126.28 163.42 126.28 161.9 170.66 128.44 182.61 94.99 170.66 93.47 148.47 75.22 148.47 78.26 184.31 128.28 203.66 178.63 184.31 187.58 58" fill="#fff"/></svg>