<?xml version="1.0" encoding="UTF-8"?><svg id="Git" xmlns="http://www.w3.org/2000/svg" viewBox="0 0 256 256"><path id="git" d="M222.81,117.5L135.48,30.19c-5.03-5.03-13.18-5.03-18.22,0l-18.13,18.14,23,23c5.35-1.81,11.48-.59,15.73,3.67,4.29,4.29,5.49,10.47,3.63,15.83l22.17,22.17c5.37-1.85,11.55-.65,15.83,3.64,5.99,5.99,5.99,15.68,0,21.67-5.99,5.99-15.69,5.99-21.68,0-4.5-4.51-5.62-11.12-3.33-16.67l-20.68-20.68v54.41c1.46,.72,2.84,1.68,4.05,2.9,5.99,5.99,5.99,15.68,0,21.68-5.99,5.98-15.69,5.98-21.67,0-5.99-5.99-5.99-15.69,0-21.68,1.48-1.48,3.19-2.6,5.02-3.35v-54.92c-1.83-.75-3.54-1.86-5.02-3.35-4.53-4.53-5.62-11.19-3.3-16.76l-22.67-22.68L30.35,117.1c-5.03,5.03-5.03,13.19,0,18.22l87.33,87.32c5.03,5.03,13.18,5.03,18.22,0l86.92-86.92c5.03-5.03,5.03-13.19,0-18.22Z" fill="#f05133"/></svg>