<?xml version="1.0" encoding="UTF-8"?><svg id="HTML" xmlns="http://www.w3.org/2000/svg" viewBox="0 0 256 256"><defs><style>.cls-1{fill:#c33;}.cls-2{fill:#fff;}.cls-3{fill:#ea8179;}.cls-4{fill:none;stroke:#c33;stroke-miterlimit:10;stroke-width:5px;}</style></defs><polygon id="bgDark" class="cls-1" points="127 230.83 127 30.83 43.36 30.83 58.57 204.94 127 230.83"/><polygon id="bgLight" class="cls-3" points="127 230.83 127 30.83 210.64 30.83 195.43 204.94 127 230.83"/><polygon id="outline" class="cls-4" points="127 230.83 195.43 204.94 210.64 30.83 43.36 30.83 58.57 204.94 127 230.83"/><polygon id="number5" class="cls-2" points="186.14 58 67.52 58 72.25 126.28 161.98 126.28 160.46 170.66 127 182.61 93.54 170.66 92.02 148.47 73.77 148.47 76.82 184.31 126.83 203.66 177.18 184.31 181.75 107.5 88.98 107.5 87.46 78.48 184.79 78.48 186.14 58"/></svg>