<?xml version="1.0" encoding="UTF-8"?><svg id="JS" xmlns="http://www.w3.org/2000/svg" viewBox="0 0 256 256"><polygon id="bgDark" points="128 230.83 128 30.83 44.36 30.83 59.57 204.94 128 230.83" fill="#dcb417"/><polygon id="bgLight" points="128 230.83 128 30.83 211.64 30.83 196.43 204.94 128 230.83" fill="#ffd100"/><polygon id="outline" points="128 230.83 196.43 204.94 211.64 30.83 44.36 30.83 59.57 204.94 128 230.83" fill="none" stroke="#dcb417" stroke-miterlimit="10" stroke-width="5"/><polygon id="letterS" points="195.2 58 140 58 140 142.21 173.63 136.48 172.64 171.43 140 182.61 140 203.66 187 186.78 190.71 115.03 154.79 119.07 154.79 76.21 193.91 76.16 195.2 58" fill="#fff"/><polygon id="letterJ" points="115.54 58 115.54 203.66 65.57 185.45 64.18 167.95 98.73 180.34 97.59 58 115.54 58" fill="#fff"/></svg>