<?xml version="1.0" encoding="UTF-8"?><svg xmlns="http://www.w3.org/2000/svg" viewBox="0 0 256 256"><defs><style>.cls-1{fill:#fff;}.cls-2{fill:#d8d8d8;}.cls-3{fill:#dcb417;}.cls-4{fill:#ffd100;}.cls-5{fill:none;stroke:#dcb417;stroke-miterlimit:10;stroke-width:5px;}</style></defs><g id="aPath"><g id="practicePath"><g id="leftPathBorder"><path class="cls-2" d="M1032.95-262.96c.33,0,.66,.11,.95,.39,7.1,6.67,11.31,13.68,11.99,22.68,1.39,18.46-11.21,37.03-28.73,47.88-23.05,14.28-52.11,18.81-79.54,24-26.29,4.97-54.52,11.52-73.86,28.05-21.27,18.19-22.05,43.57-20.74,67.37,1.22,22.27,3.87,45.42-6.39,66.62-7.66,15.82-21.22,28.88-36.76,39.81-34.19,24.06-76.94,39.25-107.64,66.81-18.51,16.61-29.47,37.42-31.89,59.93-2.62,24.32,3.47,48.82,13.11,71.71,20.18,47.92,58.38,88.96,78.62,136.88,9.68,22.92,14.46,47.02,11.88,71.29-2.49,23.36-10.97,46.06-23.54,67.02-26.85,44.77-71.59,79.56-121.45,106.79-53.01,28.95-111.63,51.24-169.92,71.8-61.72,21.77-124.95,40.63-189.42,56.02-.18,.04-.36,.06-.52,.06-1.77,0-2.36-2.36-.4-2.84,15.29-3.81,30.54-7.74,45.72-11.85,63.43-17.19,125.7-37.31,186.33-60.41,56.15-21.39,112.58-44.54,161.03-76.71,46.59-30.94,85.25-71.42,101.31-119.69,8.08-24.28,9.66-49.72,3.62-74.45-5.97-24.43-18.32-47.36-32.07-69.4-26.92-43.12-59.54-84.57-67.75-133.65-3.67-21.94-2.17-44.73,8.34-65.32,8.85-17.32,23.74-31.55,41.04-43.49,33.45-23.1,75.09-38.07,104.9-64.78,16.16-14.48,25.79-31.92,27.79-51.64,2.38-23.53-3.53-47.16-.14-70.65,3-20.8,14.98-38.29,36.24-49.89,22.42-12.22,49.23-16.64,74.96-21.53,26.61-5.07,56.74-11.27,75.22-29.25,15.3-14.89,24.02-41.16,6.64-57.49-.94-.88,.03-2.08,1.09-2.08m0-2c-1.41,0-2.75,.89-3.25,2.17-.47,1.18-.16,2.47,.79,3.36,5.87,5.51,8.88,12.45,8.96,20.62,.1,11.49-5.88,24.51-15.62,33.98-18.64,18.14-50.75,24.25-74.2,28.72-1.91,.36-3.82,.72-5.74,1.09-23.98,4.52-48.77,9.19-69.8,20.66-21.2,11.56-34.09,29.32-37.27,51.36-1.82,12.63-1,25.41-.2,37.76,.7,10.84,1.43,22.05,.32,32.98-1.92,19-11.05,35.94-27.13,50.35-17.44,15.63-39.44,27.45-60.72,38.88-14.85,7.98-30.21,16.23-43.98,25.74-19.85,13.71-33.49,28.18-41.69,44.23-9.83,19.25-12.7,41.64-8.54,66.55,6.74,40.28,29.99,75.84,52.48,110.24,5.16,7.9,10.5,16.06,15.55,24.14,11.48,18.39,25.47,42.83,31.83,68.82,5.77,23.61,4.54,48.97-3.57,73.34-14.5,43.59-49.26,84.62-100.52,118.65-49.91,33.14-109.09,56.87-160.63,76.51-59.77,22.77-122.4,43.07-186.15,60.35-14.3,3.88-29.25,7.75-45.68,11.84-1.81,.45-2.92,1.97-2.71,3.7,.22,1.76,1.76,3.09,3.6,3.09,.32,0,.66-.04,.99-.12,62.89-15.01,126.68-33.88,189.62-56.08,56.48-19.93,116.19-42.43,170.22-71.93,56.97-31.11,98.09-67.28,122.21-107.52,13.38-22.32,21.39-45.14,23.81-67.83,2.47-23.22-1.57-47.54-12.02-72.28-10.18-24.1-25.06-46.77-39.45-68.68-14.32-21.82-29.14-44.38-39.17-68.2-11.03-26.18-15.27-49.31-12.96-70.72,2.39-22.17,13.19-42.46,31.24-58.66,17.73-15.91,40-27.92,61.54-39.54,15.52-8.37,31.57-17.03,45.92-27.12,18.13-12.76,30.37-26.03,37.41-40.58,9.5-19.62,8.21-40.73,6.97-61.14-.13-2.16-.26-4.32-.38-6.46-1.24-22.46-.81-47.91,20.05-65.74,19.15-16.37,47.69-22.84,72.93-27.61,2.22-.42,4.45-.84,6.69-1.25,25.58-4.76,52.03-9.69,73.53-23.01,19.39-12.01,31.04-31.54,29.67-49.74-.67-8.91-4.68-16.53-12.61-23.99-.64-.6-1.46-.93-2.32-.93h0Z"/></g></g></g><g id="JS"><polygon id="bgDark" class="cls-3" points="128 230.83 128 30.83 44.36 30.83 59.57 204.94 128 230.83"/><polygon id="bgLight" class="cls-4" points="128 230.83 128 30.83 211.64 30.83 196.43 204.94 128 230.83"/><polygon id="outline" class="cls-5" points="128 230.83 196.43 204.94 211.64 30.83 44.36 30.83 59.57 204.94 128 230.83"/><polygon id="letterS" class="cls-1" points="195.2 58 140 58 140 142.21 173.63 136.48 172.64 171.43 140 182.61 140 203.66 187 186.78 190.71 115.03 154.79 119.07 154.79 76.21 193.91 76.16 195.2 58"/><polygon id="letterJ" class="cls-1" points="115.54 58 115.54 203.66 65.57 185.45 64.18 167.95 98.73 180.34 97.59 58 115.54 58"/></g></svg>