<?xml version="1.0" encoding="UTF-8"?><svg id="menuListWheel" xmlns="http://www.w3.org/2000/svg" viewBox="0 0 256 256"><rect x="35.23" y="28" width="187.5" height="200" rx="12" ry="12" fill="#fdfdc2"/><g><line x1="80.74" y1="79.76" x2="176.13" y2="175.15" fill="none" stroke="#512a5e" stroke-linecap="round" stroke-miterlimit="10" stroke-width="16"/><line x1="78.5" y1="176.2" x2="177.28" y2="77.42" fill="none" stroke="#512a5e" stroke-linecap="round" stroke-miterlimit="10" stroke-width="16"/><path d="M128.98,198c-4.55,0-9.19-.53-13.66-1.4-4.46-.87-8.92-2.27-13.13-4.02-4.2-1.75-8.31-3.85-12.07-6.39-3.85-2.54-7.43-5.51-10.59-8.75-3.24-3.23-6.21-6.74-8.75-10.59-2.54-3.85-4.73-7.87-6.38-12.07-1.75-4.29-3.15-8.66-4.02-13.13-.88-4.55-1.4-9.1-1.4-13.65s.52-9.19,1.4-13.74c.87-4.46,2.27-8.84,4.02-13.04,1.66-4.29,3.85-8.31,6.38-12.07,2.54-3.85,5.51-7.44,8.75-10.68,3.15-3.23,6.74-6.12,10.59-8.75,3.77-2.45,7.88-4.64,12.07-6.39,4.2-1.75,8.66-3.06,13.13-4.02,9.02-1.75,18.3-1.75,27.4,0,4.46,.97,8.84,2.28,13.03,4.02,4.29,1.75,8.31,3.94,12.07,6.39,3.85,2.63,7.44,5.52,10.68,8.75,3.24,3.24,6.13,6.83,8.66,10.68,2.53,3.76,4.72,7.79,6.47,12.07,1.75,4.2,3.07,8.58,4.02,13.04,.88,4.55,1.32,9.19,1.32,13.74s-.44,9.1-1.32,13.65c-.96,4.46-2.27,8.84-4.02,13.13-1.75,4.2-3.94,8.22-6.47,12.07-2.54,3.85-5.43,7.35-8.66,10.59-3.24,3.24-6.83,6.21-10.68,8.75-3.76,2.54-7.78,4.64-12.07,6.39-4.2,1.75-8.57,3.15-13.03,4.02-4.55,.88-9.19,1.4-13.74,1.4Z" fill="none" stroke="#512a5e" stroke-miterlimit="10" stroke-width="16"/></g></svg>