<?xml version="1.0" encoding="UTF-8"?><svg id="aPath" xmlns="http://www.w3.org/2000/svg" viewBox="0 0 1200 532.61"><defs><style>.cls-1{fill:#7a0092;}.cls-2{fill:none;stroke:#3a3a3a;stroke-miterlimit:10;}</style></defs><g id="practicePath"><path class="cls-2" d="M728.05,29.02c-1.05,.26-2.11,.49-3.17,.68-.4,.49-.79,.99-1.2,1.47-9.28,10.93-20.55,20.25-33.08,27.22-14.07,7.83-29.55,12.2-45.54,13.79-18.32,1.82-36.76,.54-55.09-.34-15.88-.76-31.88-1.35-47.67,.95-13.11,1.91-26.07,5.64-37.9,11.67-11.13,5.68-21.26,13.63-28.33,24.03-8.9,13.1-10.2,28.18-11.46,43.54-.68,8.27-1.69,16.53-4.72,24.31-2.58,6.62-6.47,12.73-11.17,18.04-9.57,10.82-22.25,18.64-35.54,24.06-32.52,13.25-68.65,11.58-102.26,20.58-26.08,6.99-53.24,22.57-64.14,48.52-13.15,31.32,5.53,62.58,15.55,91.78,10.48,30.54,8.7,64.11-6.36,92.89-14.43,27.58-40.52,48.11-70.38,56.62-.46,.13-.91,.25-1.37,.37,1.48,.32,2.96,.68,4.42,1.1,20.32-6.09,38.96-17.64,53.36-33.32,21.03-22.91,31.92-54.24,30.43-85.24-.79-16.47-5.62-31.87-11.59-47.13-6.02-15.38-13.03-31.01-14.54-47.65-1.4-15.39,2.92-30.25,12.6-42.33,8.98-11.21,21.22-19.48,34.23-25.35,32.45-14.64,69.38-12.81,103.42-21.45,26.38-6.69,54.38-21.71,65.9-47.72,7.11-16.06,4.98-33.66,8.79-50.43,3.02-13.26,10.68-24.56,21.28-32.98,22.48-17.86,52.45-22,80.27-21.51,35.13,.62,71.77,6.51,105.46-6.64,20.1-7.85,37.83-21.34,50.88-38.47-.41-.3-.77-.66-1.07-1.07Z"/><path class="cls-2" d="M742.76,27.94c-1.99,.73-4.01,1.4-6.05,1.99-19.31,20.06-43,35.99-68.81,46.06-12.63,4.93-25.79,8.51-39.2,10.53-15.1,2.28-30.09,1.81-45.29,1.21-15.55-.61-31.39-.4-45.84,6.06-12.65,5.66-22.16,15.94-25.35,29.59-3.5,14.94-.46,30.39-1.12,45.51-.61,13.95-5.06,27.56-12.36,39.43-7.13,11.59-16.98,21.54-28.66,28.55-13.6,8.17-29.07,11.02-44.51,13.54-15.01,2.45-30.37,4.85-43.66,12.7-10.94,6.46-21.01,16.41-24.11,29.11-3.29,13.49,2.54,26.18,11.18,36.3,9.7,11.36,21.95,20.49,32.76,30.75,23,21.83,44.08,46.1,59.17,74.14,15.43,28.67,24.11,61.46,21.56,94.13-.1,1.28-.22,2.55-.36,3.83,.16-.06,.31-.13,.47-.19,.55-.21,1.07-.31,1.55-.34,.13-.04,.25-.07,.38-.11,2.91-24.32-1.14-49.58-9.25-72.46-10.47-29.56-28.26-55.92-49.03-79.21-10.76-12.07-22.41-23.32-34.48-34.07-10.51-9.35-22.7-18.78-28.38-32.07-5.73-13.39-1.34-27.28,8.6-37.3,10.56-10.65,24.52-15.76,38.92-18.72,16.16-3.32,32.92-4.5,48.43-10.53,12.51-4.87,23.73-12.79,32.7-22.76,8.78-9.76,15.48-21.4,19.31-33.97,4.29-14.03,3.59-28.1,3.11-42.57-.51-15.17,.54-31.01,12.42-41.95,11.33-10.42,27.3-13.52,42.19-13.87,16.43-.38,32.78,1.64,49.21,.21,13.11-1.14,26.09-3.74,38.64-7.69,32.91-10.36,63.16-29.82,86.43-55.47-.18-.12-.36-.24-.55-.36Z"/></g><path id="topFill" class="cls-1" d="M1202.21-3.22H-2.21V461c22.96-1.94,52.86-8.51,70.26-31.22,24.96-32.58,36.05-134.44,40.04-160.11,16.06-103.11,55.64-178.53,138.51-221.54,87.32-45.31,149.55-31.22,327.2-8.1,343.3,44.67,574.39-17.09,628.41-15.4V-3.22Z"/></svg>