<?xml version="1.0" encoding="UTF-8"?><svg id="cPath" xmlns="http://www.w3.org/2000/svg" viewBox="0 0 2048 1024"><path id="cPath-centerFill" d="M2059.67,116.67s-19.76,195.28-226.67,212c-132,10.67-116-40-380-33.33-81.86,2.07-208,13.33-261.56-111.85-41.68-97.43-161.86-158.41-284.51-119.14-248.72,79.65-425.72,84.88-557.72,84.88S32.9,202.35-8.33,400.35c-41.23,198,52.02,432.61-59.78,476-51.53,20,5.31,170,5.31,170H2059.67V116.67Z" fill="#512a5e" stroke="#ffff60" stroke-miterlimit="10"/><path d="M715.62,169.98c-36.49,27.26-72.15,58.42-116.15,70.2-24.26,6.5-49.73,6.67-74.44,11.14-38.54,6.96-75.09,24.59-104.53,50.41-14.09,12.36-27.11,27.62-30.18,46.11-6.18,37.2,29.17,70.17,28.81,107.89-.37,38.67-37.99,66.88-75.03,78-37.04,11.12-77.23,11.91-112.2,28.42-62.99,29.75-92.59,101.01-120.06,165.03-27.48,64.02-66.25,133.59-133.89,150.3,.02,47.03,.03,94.06,.05,141.08,106.79-40.84,190.41-137.49,215.46-249.04,12.29-54.71,13.11-116.25,50.37-158.15,22.54-25.34,55.05-39.09,86.76-51.11,31.71-12.02,64.63-23.61,89.98-46.14s41.44-59.31,29.33-90.98c-4.61-12.07-12.89-22.49-17.41-34.6-11.21-30.03,3.6-65.05,28.08-85.74,24.48-20.7,56.63-29.73,88.13-35.67,31.5-5.93,63.82-9.42,93.58-21.33,45.06-18.03,80.29-53.62,117.55-84.74,43.44-36.29,91.17-67.43,141.87-92.58-13.85,6.92-30.04,10.21-44.29,16.83-16.78,7.8-33.3,16.18-49.5,25.13-32.08,17.71-62.94,37.61-92.29,59.53Z" fill="#7a0092"/></svg>