<?xml version="1.0" encoding="UTF-8"?><svg id="bPath" xmlns="http://www.w3.org/2000/svg" viewBox="0 0 1200 1042"><defs><style>.cls-1{fill:#fdfdc2;}.cls-2{fill:#ffc5f7;stroke:#b3b3b3;stroke-miterlimit:10;}</style></defs><path id="centerFill" class="cls-1" d="M-18.55,141.35S60.94-64.65,282.94,73.35s426,142.41,553,128.2,295,9.8,335,207.8-50.47,432.61,58,476c50,20-5.15,170-5.15,170H-23.7L-18.55,141.35Z"/><path id="leftPathBorder" class="cls-2" d="M1242.72,1006.47c-51.97-.11-104.66-2.81-154.08-20.52-44.2-15.84-83.85-44.33-108.51-85.09-11.59-19.16-19.55-40.75-21.65-63.17-2.48-26.51,4.6-51.93,11.27-77.3,6.34-24.1,11.97-49.25,7.33-74.21-2.17-11.67-6.82-22.6-13.96-32.06-6.56-8.68-14.61-16.01-22.5-23.42-8.25-7.75-16.55-15.72-22.52-25.45-5.66-9.22-8.85-19.73-9.7-30.52-1.66-21.08,4.34-42.01,9.88-62.11,5.65-20.48,11.84-41.38,11.87-62.82,.03-20-6.4-38.93-19.19-54.29-28.14-33.77-74.42-43.96-116.23-41.97-52.25,2.48-103.44,19.91-156.06,13.78-22.25-2.59-44.56-9.36-62.78-22.84-19.48-14.42-31.28-35.64-39.46-58.12-14.72-40.47-20.88-89.08-56.41-117.82-7.45-6.03-15.81-10.45-25.01-13.04-1.52-.43-2.15,1.91-.65,2.37,45.47,13.85,59.68,65.98,71.78,106.47,6.6,22.11,14.02,44.68,28.09,63.25,13.1,17.28,31.41,29.17,51.76,36.04,47.16,15.92,96.73,5.6,144.4-1.7,27.02-4.13,55.07-7.61,82.3-3.43,20.69,3.18,41.05,10.68,58.13,23,16.75,12.09,29.73,29.28,34.17,49.78,4.66,21.53-.02,43.8-5.5,64.7-10.1,38.55-26.57,82.66,.79,118.02,13.91,17.98,34.46,30.27,45.69,50.44,12.76,22.93,10.85,50.95,5.43,75.73-5.81,26.58-15.65,52.46-16.89,79.88-.97,21.49,3.51,42.89,11.93,62.6,17.46,40.84,51.21,74.04,90.21,94.17,45.66,23.57,97.49,31.45,148.25,33.15,12.62,.42,25.22,.44,37.84,.09,2.29-.06,2.3-3.58,0-3.59Z"/><path id="rightPathBorder" class="cls-2" d="M1277.57,876.15c-34.85,26.5-81.34,36.75-124.3,28.46-42-8.11-78.2-34.59-100.24-70.86-10.85-17.84-18.2-37.83-21.02-58.52-3.21-23.53,.2-47.26,.92-70.84,.68-22.43-1.47-45.3-13.63-64.78-10.88-17.43-27.03-30.67-39.13-47.16-6.38-8.7-11.34-18.26-13.48-28.89-2.53-12.56-1.24-25.55,.92-38.06,3.95-22.95,10.51-45.55,7.61-69.04-4.94-40-30.79-74.98-63.49-97.59-38.83-26.85-87.57-35.1-134.03-34.46-24.67,.34-48.99,3.55-73.4,6.85-25.18,3.41-51.47,6.36-76.38-.34-35.9-9.66-58.54-39.28-77-69.45-17.85-29.18-33.38-61.39-59.23-84.65-6.02-5.41-12.54-10.22-19.56-14.29-1.4-.81-2.65,1.33-1.26,2.15,30.77,18.15,49.13,50.01,66.62,79.89,16.88,28.83,34.46,60.04,63.71,78.18,41.87,25.97,92.3,11.95,137.87,7.2,49.52-5.15,101.86-3.32,147.6,18.17,38.01,17.85,70.66,51.32,82.06,92.17,2.85,10.22,4.27,20.82,4.07,31.43-.24,12.62-2.79,25.03-5.29,37.36-4.59,22.62-9.33,46.57,.25,68.61,8.07,18.56,23.57,32.4,36.58,47.47,7.2,8.33,13.79,17.27,18.07,27.46,4.7,11.19,6.65,23.28,7.2,35.34,1.1,24.3-3.01,48.49-2.17,72.79,.7,20.25,5.54,40.12,13.97,58.54,17.01,37.16,48.43,67.79,87,82.2,39.85,14.89,85.72,12.38,124.08-5.73,9.59-4.52,18.48-10.08,26.9-16.48,1.84-1.4,.03-4.55-1.84-3.13Z"/></svg>