<?xml version="1.0" encoding="UTF-8"?><svg id="aPath" xmlns="http://www.w3.org/2000/svg" viewBox="0 0 1200 1042"><g id="practicePath"><g id="rightPathBorder"><path d="M-16.17,809.72c-2.2,0-3.39-1.53-3.42-3.04-.04-1.62,1.17-3.31,3.54-3.41,13.22-.59,25.99-1.63,37.95-3.09,53.64-6.54,100.99-21.18,140.75-43.51,38.76-21.76,69.44-50.78,88.71-83.9,20.29-34.88,26.61-76.03,19.34-125.82-3.17-21.73-8.15-42.43-14.33-67.24-.82-3.28-1.65-6.57-2.49-9.86-4.39-17.26-8.92-35.12-10.89-52.98-2.54-23.08,.25-41.95,8.51-57.69,7.23-13.78,19.35-25.74,36.03-35.56,19.55-11.51,42.18-18.88,64.06-26.01,12.5-4.07,25.42-8.28,37.58-13.2,20.07-8.13,34.64-16.73,45.86-27.05,14.45-13.31,23.89-29.92,30.49-42.9,3.32-6.52,6.48-13.35,9.53-19.96,10.84-23.43,22.05-47.66,43.48-66.14,28.94-24.95,70-30.71,109.71-36.28,5.18-.73,10.54-1.48,15.72-2.25,55.76-8.36,89.16-25.11,102.11-51.2,.48-.96,1.49-1.54,2.7-1.54,1.06,0,2.01,.45,2.47,1.18,.38,.6,.4,1.32,.07,2.01-3.48,7.27-8.35,13.88-14.46,19.65-28.16,26.58-73.02,33.11-112.59,38.87l-2.37,.35c-21.59,3.15-46.06,6.72-67.78,15.49-18.74,7.57-34.2,19.24-45.96,34.7-11.45,15.05-19.27,31.92-26.83,48.24-6.74,14.54-13.71,29.57-23.24,43.35-10,14.46-22.63,26.36-37.53,35.36-15.58,9.41-33.17,16.02-49.87,21.76-5.89,2.03-12.04,4.02-17.99,5.95-29.31,9.51-59.62,19.34-80.34,39.07-31.45,29.96-24.72,70.77-14.32,113.47,1.48,6.08,3.01,12.18,4.54,18.28,9.64,38.45,19.6,78.2,18.39,118.15-1.25,41.12-16.57,79.99-44.3,112.42-52.75,61.67-144.82,99.7-252.61,104.33h-.21Z" fill="#ffff60"/><path d="M748.77,38.09c1.1,0,2.15,.69,1.64,1.77-3.4,7.1-8.16,13.61-14.25,19.35-28.49,26.89-74.19,33.09-114.43,38.96-23.11,3.37-46.75,6.97-68.01,15.55-19.44,7.85-34.89,19.92-46.38,35.02-21.71,28.54-29.91,62.43-50.1,91.62-9.5,13.74-21.74,25.72-37.23,35.07-15.19,9.17-32.39,15.73-49.68,21.67-34.28,11.8-73.49,21.24-98.7,45.24-33.35,31.77-23.77,76.78-14.6,114.43,10.92,44.84,24.3,90.1,22.9,136.16-1.22,40.33-15.86,78.82-44.06,111.8-57.52,67.25-154.87,99.81-251.89,103.98-.06,0-.11,0-.17,0-3.3,0-3.22-4.31,.17-4.46,12.73-.57,25.42-1.56,38.03-3.1,50.06-6.11,99.08-20.02,141.12-43.63,37.69-21.16,69.27-50.22,89.08-84.27,23.02-39.57,25.75-83.45,19.47-126.47-3.31-22.64-8.79-45.02-14.35-67.34-5.17-20.76-11.03-41.56-13.35-62.71-2.11-19.22-1.01-39.2,8.4-57.12,7.55-14.39,20.3-26.13,35.65-35.16,30.63-18.03,68.08-25.61,101.51-39.14,17.09-6.92,33.35-15.45,46.16-27.24,13.59-12.51,22.87-27.78,30.7-43.18,14.94-29.38,25.42-62.21,52.78-85.8,32.58-28.09,81.17-31.74,124.92-38.3,39.31-5.89,86.29-18.36,102.85-51.74,.34-.68,1.08-.98,1.8-.98m0-2c-1.58,0-2.95,.8-3.59,2.09-12.79,25.77-45.95,42.34-101.36,50.65-5.18,.78-10.53,1.53-15.71,2.25-39.85,5.59-81.06,11.37-110.22,36.51-21.6,18.62-32.85,42.95-43.74,66.48-3.05,6.6-6.21,13.42-9.52,19.93-6.57,12.91-15.94,29.42-30.28,42.62-11.13,10.24-25.6,18.78-45.56,26.86-12.12,4.91-25.03,9.11-37.51,13.18-21.93,7.14-44.61,14.53-64.26,26.1-16.84,9.91-29.08,22.01-36.4,35.95-8.36,15.92-11.17,34.98-8.62,58.27,1.97,17.94,6.52,35.82,10.91,53.12,.83,3.29,1.67,6.57,2.49,9.85,6.17,24.78,11.14,45.46,14.31,67.15,7.24,49.56,.95,90.5-19.22,125.17-19.18,32.97-49.72,61.86-88.33,83.53-39.65,22.26-86.88,36.86-140.39,43.39-11.94,1.46-24.68,2.49-37.88,3.08-2.98,.13-4.55,2.39-4.5,4.44,.04,2,1.58,4.02,4.42,4.02,.08,0,.17,0,.26,0,50.4-2.17,99.3-12.01,141.4-28.47,46.6-18.22,84.25-43.86,111.92-76.21,27.88-32.6,43.29-71.69,44.54-113.03,1.22-40.09-8.77-79.91-18.42-118.43-1.5-5.99-3.06-12.19-4.54-18.27-10.33-42.41-17.03-82.92,14.04-112.51,20.55-19.57,50.75-29.37,79.96-38.84,5.96-1.93,12.11-3.93,18.01-5.96,16.75-5.76,34.4-12.4,50.06-21.85,15.03-9.07,27.76-21.07,37.84-35.65,9.58-13.85,16.56-28.92,23.32-43.5,7.54-16.27,15.34-33.09,26.72-48.05,11.64-15.31,26.96-26.87,45.54-34.37,21.6-8.73,46.01-12.28,67.55-15.43l2.38-.35c39.72-5.78,84.75-12.34,113.14-39.14,6.21-5.86,11.14-12.57,14.68-19.94,.48-1,.44-2.09-.12-2.98-.64-1.02-1.91-1.65-3.32-1.65h0Z" fill="#d8d8d8"/></g><g id="leftPathBorder"><path d="M-25.01,1019.16c-1.35,0-2.45-.93-2.61-2.21-.12-1.02,.43-2.22,1.96-2.61,16.45-4.1,31.4-7.97,45.7-11.85,63.77-17.28,126.43-37.6,186.24-60.38,51.6-19.66,110.83-43.41,160.83-76.61,51.44-34.16,86.34-75.37,100.91-119.17,8.17-24.55,9.41-50.1,3.59-73.9-6.39-26.12-20.43-50.66-31.95-69.11-5.05-8.09-10.39-16.26-15.56-24.16-22.43-34.31-45.63-69.78-52.33-109.86-4.13-24.7-1.29-46.88,8.44-65.94,8.12-15.9,21.65-30.25,41.36-43.86,13.73-9.48,29.06-17.72,43.89-25.68,21.33-11.46,43.39-23.31,60.91-39.02,16.27-14.58,25.51-31.74,27.46-51,1.11-11.01,.38-22.26-.32-33.14-.8-12.3-1.62-25.03,.19-37.55,3.13-21.71,15.84-39.22,36.76-50.62,20.89-11.39,45.6-16.05,69.5-20.55,1.92-.36,3.83-.72,5.74-1.09,23.57-4.49,55.86-10.64,74.71-28.98,9.92-9.65,16.02-22.95,15.92-34.7-.08-8.45-3.19-15.63-9.27-21.34-.66-.62-.87-1.47-.55-2.27,.36-.91,1.31-1.54,2.32-1.54,.61,0,1.18,.23,1.64,.66,7.74,7.27,11.65,14.69,12.3,23.33,1.34,17.83-10.12,36.99-29.2,48.81-21.34,13.22-47.7,18.13-73.19,22.88-2.24,.42-4.48,.83-6.7,1.25-25.37,4.8-54.06,11.3-73.4,27.83-21.2,18.12-21.64,43.86-20.39,66.56,.12,2.15,.25,4.31,.38,6.47,1.24,20.28,2.51,41.25-6.87,60.64-6.97,14.39-19.1,27.54-37.09,40.2-14.3,10.06-30.32,18.7-45.81,27.06-21.59,11.64-43.92,23.68-61.73,39.68-18.24,16.37-29.15,36.88-31.57,59.3-2.32,21.58,1.94,44.88,13.03,71.21,10.07,23.9,24.91,46.5,39.25,68.36,14.37,21.88,29.22,44.51,39.36,68.53,10.38,24.59,14.4,48.74,11.95,71.79-2.4,22.54-10.36,45.23-23.67,67.42-24.03,40.08-65.02,76.13-121.83,107.15-53.96,29.47-113.63,51.96-170.07,71.87-62.91,22.19-126.67,41.05-189.52,56.05-.25,.06-.51,.09-.75,.09h0Z" fill="#ffff60"/><path d="M748.85,13.04c.33,0,.66,.11,.95,.39,7.1,6.67,11.31,13.68,11.99,22.68,1.39,18.46-11.21,37.03-28.73,47.88-23.05,14.28-52.11,18.81-79.54,24-26.29,4.97-54.52,11.52-73.86,28.05-21.27,18.19-22.05,43.57-20.74,67.37,1.22,22.27,3.87,45.42-6.39,66.62-7.66,15.82-21.22,28.88-36.76,39.81-34.19,24.06-76.94,39.25-107.64,66.81-18.51,16.61-29.47,37.42-31.89,59.93-2.62,24.32,3.47,48.82,13.11,71.71,20.18,47.92,58.38,88.96,78.62,136.88,9.68,22.92,14.46,47.02,11.88,71.29-2.49,23.36-10.97,46.06-23.54,67.02-26.85,44.77-71.59,79.56-121.45,106.79-53.01,28.95-111.63,51.24-169.92,71.8-61.72,21.77-124.95,40.63-189.42,56.02-.18,.04-.36,.06-.52,.06-1.77,0-2.36-2.36-.4-2.84,15.29-3.81,30.54-7.74,45.72-11.85,63.43-17.19,125.7-37.31,186.33-60.41,56.15-21.39,112.58-44.54,161.03-76.71,46.59-30.94,85.25-71.42,101.31-119.69,8.08-24.28,9.66-49.72,3.62-74.45-5.97-24.43-18.32-47.36-32.07-69.4-26.92-43.12-59.54-84.57-67.75-133.65-3.67-21.94-2.17-44.73,8.34-65.32,8.85-17.32,23.74-31.55,41.04-43.49,33.45-23.1,75.09-38.07,104.9-64.78,16.16-14.48,25.79-31.92,27.79-51.64,2.38-23.53-3.53-47.16-.14-70.65,3-20.8,14.98-38.29,36.24-49.89,22.42-12.22,49.23-16.64,74.96-21.53,26.61-5.07,56.74-11.27,75.22-29.25,15.3-14.89,24.02-41.16,6.64-57.49-.94-.88,.03-2.08,1.09-2.08m0-2c-1.41,0-2.75,.89-3.25,2.17-.47,1.18-.16,2.47,.79,3.36,5.87,5.51,8.88,12.45,8.96,20.62,.1,11.49-5.88,24.51-15.62,33.98-18.64,18.14-50.75,24.25-74.2,28.72-1.91,.36-3.82,.72-5.74,1.09-23.98,4.52-48.77,9.19-69.8,20.66-21.2,11.56-34.09,29.32-37.27,51.36-1.82,12.63-1,25.41-.2,37.76,.7,10.84,1.43,22.05,.32,32.98-1.92,19-11.05,35.94-27.13,50.35-17.44,15.63-39.44,27.45-60.72,38.88-14.85,7.98-30.21,16.23-43.98,25.74-19.85,13.71-33.49,28.18-41.69,44.23-9.83,19.25-12.7,41.64-8.54,66.55,6.74,40.28,29.99,75.84,52.48,110.24,5.16,7.9,10.5,16.06,15.55,24.14,11.48,18.39,25.47,42.83,31.83,68.82,5.77,23.61,4.54,48.97-3.57,73.34-14.5,43.59-49.26,84.62-100.52,118.65-49.91,33.14-109.09,56.87-160.63,76.51-59.77,22.77-122.4,43.07-186.15,60.35-14.3,3.88-29.25,7.75-45.68,11.84-1.81,.45-2.92,1.97-2.71,3.7,.22,1.76,1.76,3.09,3.6,3.09,.32,0,.66-.04,.99-.12,62.88-15.01,126.68-33.88,189.62-56.08,56.48-19.93,116.19-42.43,170.22-71.93,56.97-31.11,98.09-67.28,122.21-107.52,13.38-22.32,21.39-45.14,23.81-67.83,2.47-23.22-1.57-47.54-12.02-72.28-10.18-24.1-25.06-46.77-39.45-68.68-14.32-21.82-29.14-44.38-39.17-68.2-11.03-26.18-15.27-49.31-12.96-70.72,2.39-22.17,13.19-42.46,31.24-58.66,17.73-15.91,40-27.92,61.54-39.54,15.52-8.37,31.57-17.03,45.92-27.12,18.13-12.76,30.37-26.03,37.41-40.58,9.5-19.62,8.21-40.73,6.97-61.14-.13-2.16-.26-4.32-.38-6.46-1.24-22.46-.81-47.91,20.05-65.74,19.15-16.37,47.69-22.84,72.93-27.61,2.22-.42,4.45-.84,6.69-1.25,25.58-4.76,52.03-9.69,73.53-23.01,19.39-12.01,31.04-31.54,29.67-49.74-.67-8.91-4.68-16.53-12.61-23.99-.64-.6-1.46-.93-2.32-.93h0Z" fill="#d8d8d8"/></g></g><path id="topFill" d="M1202.21-3.22H-2.21V461c22.96-1.94,52.86-8.51,70.26-31.22,24.96-32.58,36.05-134.44,40.04-160.11,16.06-103.11,55.64-178.53,138.51-221.54,87.32-45.31,149.55-31.22,327.2-8.1,343.3,44.67,574.39-17.09,628.41-15.4V-3.22Z" fill="#7a0092"/></svg>