<?xml version="1.0" encoding="UTF-8"?><svg id="bPath" xmlns="http://www.w3.org/2000/svg" viewBox="0 0 2048 1024"><path id="bPath-centerFill" d="M-2.21,132.35s57.68-.36,142.22-1.05c80-.65,146.09-38.23,247.99-34.63,89,3.14,122.87,55.17,193,73,59,15,173,1,206-50,26.49-40.94,129.83-171.73,322.84-55.32,228.81,138,439.08,142.41,569.98,128.2,130.9-14.2,304.06,9.8,345.28,207.8s-52.02,432.61,59.78,476c51.53,20-5.31,170-5.31,170H-7.52L-2.21,132.35Z" fill="#f9f6fa" stroke="#ffc5f7" stroke-miterlimit="10"/><path id="bPath-path" d="M1454.21,323.62c26.79,7.58,55.26,1.27,82.72-3.33,55.26-9.26,113.84-11.03,165.46,10.76,51.61,21.8,94.29,71.79,93.55,127.81-.49,36.92-18.72,75.61-3.37,109.19,10.05,21.99,32.41,35.88,44.96,56.55,22.17,36.53,8.95,83.27,12.49,125.86,4.54,54.76,40.42,105.83,90.39,128.67,49.97,22.85,112.06,16.56,156.45-15.83-2,49.35-13.42,98.31-33.47,143.45-51.52-3.65-103.72-7.43-152.56-24.2-48.85-16.77-94.78-48.33-117.69-94.61-27.54-55.61-17.95-121.69-6.24-182.63,2.18-11.33,4.41-23,2.16-34.32-5.6-28.14-35.73-43.8-50.65-68.31-36.7-60.27,30.01-142.28,.87-206.55-16.42-36.23-59.14-53.79-98.89-55.09-39.75-1.3-78.71,10.04-118.14,15.25-39.43,5.21-82.73,3.27-114.33-20.88-30.82-23.54-44.05-62.81-58.01-98.98-14.09-36.52-31.56-62.83-61.57-87.21,9.84-.04,30.49,17.72,37.23,24.86,11.22,11.89,20.41,25.55,29.03,39.39,17.47,28.05,32.29,58.82,55.6,82.69,12.29,12.58,26.99,22.63,44.03,27.46Z" fill="#ffc5f7"/></svg>