<?xml version="1.0" encoding="UTF-8"?><svg id="TrainingWheelsLight" xmlns="http://www.w3.org/2000/svg" viewBox="0 0 256 256"><defs><style>.cls-1,.cls-2{stroke:#fdfdc2;stroke-width:12px;}.cls-1,.cls-2,.cls-3,.cls-4{fill:none;stroke-miterlimit:10;}.cls-1,.cls-3{stroke-linecap:round;}.cls-3{stroke:#ffed00;stroke-width:16px;}.cls-4{stroke:#e9dee6;stroke-width:8px;}</style></defs><path class="cls-4" d="M126.58,116.63s-40.21-5.5-52.68,30.25c-8.56,24.52,0,52.26-36.05,60.51"/><path class="cls-4" d="M126.92,116.63s40.21-5.5,52.68,30.25c8.56,24.52,0,52.26,36.05,60.51"/><line class="cls-2" x1="126.75" y1="41.05" x2="126.75" y2="119.78"/><path class="cls-1" d="M26.75,30.26c2.27-.02,4.55-.02,6.85,0,33.22,.31,64.06,5.19,92.14,12.7h2.01c28.08-7.51,58.92-12.38,92.14-12.7,2.3-.02,4.58-.02,6.85,0"/><line class="cls-3" x1="215.83" y1="185.8" x2="215.83" y2="230.24"/><line class="cls-3" x1="37.67" y1="185.8" x2="37.67" y2="230.24"/><line class="cls-3" x1="126.75" y1="120.83" x2="126.75" y2="230.24"/></svg>