<?xml version="1.0" encoding="UTF-8"?><svg id="TrainingWheels" xmlns="http://www.w3.org/2000/svg" viewBox="0 0 256 256"><defs><style>.cls-1{stroke:#512a5e;stroke-width:16px;}.cls-1,.cls-2,.cls-3,.cls-4{fill:none;stroke-miterlimit:10;}.cls-1,.cls-3{stroke-linecap:round;}.cls-2,.cls-3{stroke:#7a0092;stroke-width:12px;}.cls-5{fill:#fdfdc2;}.cls-4{stroke:#5b5b5b;stroke-width:8px;}</style></defs><rect class="cls-5" x="34.93" y="28" width="187.5" height="200" rx="12" ry="12"/><path class="cls-4" d="M128.55,119.99s-29.87-4.09-39.14,22.48c-6.36,18.22,0,38.83-26.78,44.96"/><path class="cls-4" d="M128.81,119.99s29.87-4.09,39.14,22.48c6.36,18.22,0,38.83,26.78,44.96"/><line class="cls-2" x1="128.68" y1="63.84" x2="128.68" y2="122.33"/><path class="cls-3" d="M54.39,55.82c1.69-.02,3.38-.02,5.09,0,24.68,.23,47.59,3.85,68.46,9.43h1.49c20.87-5.58,43.78-9.2,68.46-9.43,1.71-.02,3.41-.02,5.09,0"/><line class="cls-1" x1="194.86" y1="171.38" x2="194.86" y2="204.4"/><line class="cls-1" x1="62.5" y1="171.38" x2="62.5" y2="204.4"/><line class="cls-1" x1="128.68" y1="123.11" x2="128.68" y2="204.4"/></svg>