<?xml version="1.0" encoding="UTF-8"?><svg id="VSCode" xmlns="http://www.w3.org/2000/svg" viewBox="0 0 256 256"><defs><style>.cls-1{fill:#1f9cf0;}.cls-2{fill:#007acc;}.cls-3{fill:#0065a9;}</style></defs><path id="topRibbon" class="cls-3" d="M218.06,48.05l-41.18-19.83c-4.77-2.3-10.46-1.33-14.21,2.41L27.85,153.56c-3.63,3.31-3.62,9.02,0,12.32l11.01,10.01c2.97,2.7,7.44,2.9,10.64,.47L211.86,53.2c5.45-4.13,13.27-.25,13.27,6.59v-.48c0-4.8-2.75-9.17-7.07-11.26Z"/><path id="bottomRibbon" class="cls-2" d="M218.06,204.77l-41.18,19.83c-4.77,2.3-10.46,1.33-14.21-2.41L27.85,99.26c-3.63-3.31-3.62-9.02,0-12.32l11.01-10.01c2.97-2.7,7.44-2.9,10.64-.47l162.36,123.17c5.45,4.13,13.27,.25,13.27-6.59v.48c0,4.8-2.75,9.17-7.07,11.26Z"/><path id="rightRibbon" class="cls-1" d="M176.88,224.61c-4.77,2.29-10.47,1.32-14.21-2.42,4.61,4.61,12.49,1.34,12.49-5.17V35.81c0-6.52-7.88-9.78-12.49-5.17,3.74-3.74,9.44-4.71,14.21-2.42l41.18,19.8c4.33,2.08,7.08,6.46,7.08,11.26V193.55c0,4.8-2.75,9.18-7.08,11.26l-41.18,19.8Z"/></svg>