<?xml version="1.0" encoding="UTF-8"?><svg id="Webpack" xmlns="http://www.w3.org/2000/svg" viewBox="0 0 256 256"><defs><style>.cls-1{fill:#fff;stroke:#a3a3a3;stroke-miterlimit:10;}.cls-2{fill:#1c78c0;}.cls-3{fill:#8ed6fb;}</style></defs><path id="outline" class="cls-1" d="M128.33,27.67l88.38,50v100l-88.38,50-88.38-50V77.67L128.33,27.67Z"/><path id="outerCube" class="cls-3" d="M200.93,174.22l-69.68,39.42v-30.7l43.42-23.88,26.27,15.17Zm4.77-4.32V87.47l-25.5,14.72v52.98l25.5,14.73h0Zm-150.25,4.32l69.68,39.42v-30.7l-43.42-23.88-26.27,15.17h0Zm-4.77-4.32V87.47l25.5,14.72v52.98l-25.5,14.73h0Zm2.98-87.77L125.13,41.7v29.68l-45.78,25.18-.35,.2-25.33-14.63Zm149.05,0l-71.47-40.43v29.68l45.78,25.18,.35,.2,25.33-14.63Z"/><path id="innerCube" class="cls-2" d="M125.13,175.95l-42.83-23.55v-46.67l42.83,24.73v45.48h0Zm6.12,0l42.83-23.55v-46.67l-42.83,24.73v45.48h0Zm-46.05-75.62l43-23.65,43,23.65-43,24.83-43-24.83Z"/></svg>